# xmcd
#
# Track frame offsets:
#       150
#       15765
#       37335
#       57081
#       72661
#       91535
#       107665
#       126251
#       144633
#       162816
#       183891
#       199254
#       212929
#
# Disc length: 3119 seconds
#
# Revision: 0
# Processed by: cddbd v1.5.2PL0 Copyright (c) Steve Scherf et al.
# Submitted via: WaveLab 4.01
#
DISCID=b50c2d0d
DTITLE=Suprafónicos - Suprafónicos
DYEAR=2010
DGENRE=Funk
TTITLE0=Bye bye
TTITLE1=En el aire
TTITLE2=Nada cambia
TTITLE3=Diva
TTITLE4=Lado imperfecto
TTITLE5=Quieres mas
TTITLE6=Criminal
TTITLE7=Qué es esto?
TTITLE8=Miles
TTITLE9=Tengo algo
TTITLE10=Día del orto
TTITLE11=A ver si mueven
TTITLE12=Siempre
EXTD=
EXTT0=
EXTT1=
EXTT2=
EXTT3=
EXTT4=
EXTT5=
EXTT6=
EXTT7=
EXTT8=
EXTT9=
EXTT10=
EXTT11=
EXTT12=
PLAYORDER=
